<?xml version="1.0" standalone="no"?>
<!DOCTYPE svg PUBLIC "-//W3C//DTD SVG 20010904//EN"
 "http://www.w3.org/TR/2001/REC-SVG-20010904/DTD/svg10.dtd">
<svg version="1.0" xmlns="http://www.w3.org/2000/svg"
 width="300.000000pt" height="200.000000pt" viewBox="0 0 300.000000 200.000000"
 preserveAspectRatio="xMidYMid meet">
<metadata>
Created by potrace 1.10, written by Peter Selinger 2001-2011
</metadata>
<g transform="translate(0.000000,200.000000) scale(0.100000,-0.100000)"
fill="#000000" stroke="none">
<path d="M560 1990 c0 -5 -9 -10 -20 -10 -11 0 -20 -4 -20 -10 0 -5 -4 -10
-10 -10 -5 0 -7 8 -4 18 4 10 3 13 -3 6 -5 -8 -24 -9 -62 -3 -30 5 -57 6 -60
4 -2 -3 1 -5 8 -5 7 0 9 -9 5 -24 -4 -18 0 -28 15 -38 12 -7 21 -23 21 -35 0
-12 9 -27 20 -33 12 -6 20 -21 20 -35 0 -19 9 -28 35 -39 41 -17 53 -41 37
-67 -7 -10 -12 -32 -12 -48 0 -18 -8 -34 -22 -43 -21 -14 -25 -29 -32 -114 -1
-16 -6 -35 -9 -41 -4 -6 4 -20 18 -31 14 -11 25 -29 25 -40 0 -11 8 -23 19
-27 16 -5 18 -16 17 -76 0 -51 3 -72 14 -79 9 -6 17 -5 21 2 4 6 12 7 20 2 13
-8 29 -10 154 -19 83 -6 115 -12 115 -24 0 -18 -45 -21 -57 -4 -8 10 -13 12
-13 5 0 -14 -58 -13 -77 1 -9 6 -18 5 -26 -2 -8 -6 -17 -8 -20 -4 -4 3 -23 6
-42 5 -27 -1 -35 3 -35 16 -1 15 -2 15 -15 -2 -12 -16 -18 -17 -27 -8 -14 14
-32 16 -24 3 10 -16 -18 -70 -39 -73 -28 -4 -32 -43 -6 -57 12 -7 18 -17 15
-26 -8 -19 13 -45 36 -45 16 0 17 -4 8 -28 -6 -16 -21 -33 -32 -38 -30 -13
-33 -52 -5 -62 16 -6 22 -18 24 -46 1 -20 -2 -39 -7 -42 -4 -3 -8 -9 -8 -15 0
-5 16 -3 35 5 22 10 35 11 35 4 0 -7 5 -6 15 2 8 6 23 9 35 5 27 -8 78 -17
110 -18 14 -1 28 -6 32 -12 5 -7 8 -6 8 1 0 7 15 10 38 9 43 -3 72 -13 72 -26
0 -10 -13 -12 -85 -9 -27 1 -52 5 -55 8 -3 4 -34 7 -69 8 -41 0 -66 5 -69 12
-2 7 -9 9 -15 5 -12 -8 -16 -9 -69 -12 -22 -1 -28 -6 -28 -24 0 -13 6 -29 12
-35 10 -10 10 -15 0 -21 -11 -6 -10 -10 4 -15 10 -4 20 -3 23 3 8 11 141 9
141 -3 0 -5 3 -6 7 -3 3 4 12 2 20 -5 10 -8 17 -8 25 0 7 7 19 7 36 1 14 -5
32 -9 41 -7 25 3 71 -11 71 -23 0 -6 -27 -9 -70 -8 -38 1 -70 5 -70 9 0 4 -30
7 -66 7 -46 0 -69 4 -75 14 -8 12 -10 12 -18 0 -5 -8 -14 -10 -22 -6 -7 5 -24
9 -38 9 -23 1 -26 -3 -29 -36 -1 -24 2 -38 9 -38 7 0 5 -8 -6 -20 -11 -13 -18
-37 -19 -75 l-2 -56 36 7 c19 3 40 6 45 5 78 -9 107 -13 147 -16 62 -6 72 -8
80 -20 5 -6 8 -6 8 2 0 12 37 6 58 -10 7 -6 12 -6 12 0 0 14 106 16 132 2 12
-6 44 -13 72 -15 28 -1 87 -7 131 -13 222 -29 285 -34 307 -24 18 8 29 6 51
-9 21 -15 36 -18 68 -13 23 4 45 3 52 -4 8 -6 44 -13 83 -15 38 -3 139 -15
224 -26 85 -12 181 -21 212 -20 44 0 59 -3 67 -17 6 -10 11 -12 11 -5 0 6 5
12 11 12 7 0 8 -23 3 -69 l-6 -68 43 -10 c24 -5 73 -11 109 -12 35 -1 67 -4
70 -6 3 -2 6 13 7 32 1 19 4 37 7 40 10 10 116 -8 116 -20 0 -7 -9 -23 -20
-37 -23 -29 -26 -48 -6 -31 10 9 16 8 25 -3 10 -11 8 -17 -6 -25 -17 -10 -16
-10 4 -11 13 0 24 8 28 21 5 15 12 19 28 15 12 -3 25 -6 30 -6 4 0 7 -7 7 -16
0 -14 3 -14 15 -4 10 9 32 10 68 6 127 -16 187 -18 187 -7 0 6 -6 11 -12 11
-7 0 -58 7 -113 15 -55 9 -130 17 -168 19 -62 2 -91 16 -50 25 10 2 21 9 25
16 7 12 66 13 85 2 5 -3 30 -5 56 -3 38 2 47 -1 49 -16 3 -16 5 -17 30 -4 15
8 30 11 32 7 3 -4 15 -7 28 -5 13 1 26 3 31 3 4 1 7 6 7 11 0 6 -13 10 -28 10
-36 0 -45 9 -30 29 10 12 7 11 -8 -2 -23 -19 -75 -15 -93 7 -7 8 -35 12 -76
10 -56 -2 -65 0 -65 16 0 10 7 23 16 31 21 17 54 19 54 2 0 -20 38 -16 49 6 9
17 5 19 -47 25 -36 4 -58 3 -60 -4 -5 -14 -23 -13 -41 4 -10 9 -59 19 -121 26
-164 18 -173 20 -175 52 0 15 -10 37 -22 50 -11 13 -23 30 -26 38 -5 10 -6 9
-5 -5 1 -11 -6 -36 -14 -55 -9 -19 -17 -30 -17 -23 -1 11 -81 26 -152 27 -25
1 -35 5 -32 13 6 15 19 17 27 5 6 -10 101 -6 117 4 5 3 16 1 23 -5 10 -9 15
-8 20 4 3 9 0 15 -9 15 -8 0 -15 7 -15 15 0 20 -17 19 -28 -1 -8 -14 -15 -15
-38 -7 -16 5 -41 8 -56 7 -20 -2 -28 2 -29 14 0 11 -3 12 -6 5 -5 -14 -83 -18
-83 -5 0 5 -13 7 -30 4 -24 -3 -30 -1 -30 14 -1 17 -2 17 -10 2 -8 -12 -20
-15 -57 -11 -27 3 -49 8 -51 13 -1 4 -27 6 -56 4 -65 -3 -96 4 -96 22 0 8 -7
14 -15 14 -8 0 -15 -4 -15 -10 0 -5 -20 -10 -45 -10 -38 0 -45 3 -45 19 0 11
5 23 10 26 6 3 10 1 10 -5 0 -8 6 -8 20 0 14 8 20 8 20 0 0 -8 11 -9 29 -5 19
4 34 1 42 -8 7 -7 24 -11 37 -9 14 3 28 -1 33 -9 7 -11 9 -11 9 3 0 15 3 15
28 3 16 -9 28 -11 30 -5 6 18 21 11 25 -12 l4 -23 2 23 c1 25 21 31 21 5 0
-15 2 -14 15 3 14 18 14 18 15 -4 0 -13 4 -20 10 -17 6 4 8 11 5 16 -4 5 5 9
19 9 20 0 26 -5 26 -21 0 -11 4 -18 10 -14 5 3 7 12 3 21 -4 11 0 14 18 10 13
-3 51 -8 84 -11 74 -8 120 -14 164 -21 24 -4 32 -2 29 8 -7 21 -174 50 -283
48 -48 -1 -86 10 -78 23 4 7 0 6 -10 -1 -9 -8 -25 -11 -36 -7 -11 3 -28 2 -38
-3 -10 -6 -26 -6 -40 -1 -26 10 -105 19 -203 24 -36 2 -83 8 -105 15 -22 6
-78 13 -125 15 -254 15 -480 41 -480 56 0 25 95 40 116 19 6 -6 40 -13 75 -15
58 -4 202 -21 239 -29 69 -14 174 -17 200 -6 26 11 33 10 48 -3 21 -19 49 -23
85 -14 16 5 34 4 40 -2 12 -9 27 -11 202 -31 111 -13 141 -17 185 -26 19 -4
58 -6 85 -5 28 2 67 4 87 5 40 2 66 16 29 16 -12 0 -19 4 -16 10 3 5 -1 10 -9
10 -8 0 -17 -4 -21 -10 -3 -5 -29 -7 -58 -4 -29 3 -72 7 -97 8 -24 2 -46 9
-48 15 -2 6 -9 8 -15 4 -24 -15 -49 -14 -43 2 3 8 1 15 -4 15 -6 0 -10 -5 -10
-11 0 -6 -17 -9 -47 -5 -27 2 -51 5 -55 5 -9 1 -5 37 5 47 4 4 7 -2 7 -14 0
-12 4 -22 10 -22 5 0 7 7 4 15 -8 20 6 19 22 -2 13 -17 14 -17 8 -1 -3 10 -1
18 5 18 6 0 11 -9 11 -21 0 -11 4 -18 10 -14 5 3 7 12 3 20 -3 8 -1 15 5 15
22 0 42 -13 42 -26 0 -8 5 -14 11 -14 6 0 8 7 5 16 -9 23 36 14 52 -11 12 -20
12 -20 10 0 -2 13 2 19 11 17 8 -2 53 -6 100 -9 47 -3 90 -9 95 -14 14 -13 26
-11 26 5 0 15 -109 36 -220 42 -55 3 -409 30 -505 39 -16 1 -52 7 -80 13 -27
6 -99 14 -160 18 -60 4 -117 8 -125 10 -8 1 -37 3 -65 3 -27 1 -57 6 -65 11
-13 9 -12 12 4 25 21 16 81 20 90 7 3 -5 34 -10 68 -11 35 -1 81 -6 103 -11
22 -5 84 -8 138 -7 74 2 101 -1 110 -11 8 -10 24 -12 60 -8 29 4 54 3 61 -3 7
-6 48 -12 92 -15 43 -2 97 -7 119 -10 51 -7 116 -15 180 -21 28 -3 66 -7 85
-10 19 -2 53 0 75 5 22 4 34 8 28 9 -7 0 -13 8 -13 16 0 8 -7 15 -15 15 -8 0
-15 -7 -15 -16 0 -11 -6 -14 -20 -9 -20 6 -136 17 -172 17 -10 -1 -18 7 -19
16 0 11 -3 12 -6 5 -2 -7 -16 -13 -30 -13 -18 0 -24 4 -19 15 3 8 1 15 -3 15
-5 0 -11 -6 -14 -14 -3 -8 -14 -13 -24 -11 -10 2 -32 4 -49 4 -27 1 -31 5 -31
26 0 14 3 25 8 25 5 0 9 -6 9 -14 0 -8 4 -17 9 -20 5 -4 7 3 4 15 -5 19 -3 21
23 15 30 -6 196 -23 258 -25 13 -1 16 -6 12 -18 -6 -17 -5 -17 7 -1 13 16 63
18 100 3 12 -5 17 -3 17 8 0 9 -8 18 -17 21 -26 7 -153 19 -333 31 -52 4 -150
13 -218 20 -75 8 -132 10 -145 5 -12 -5 -18 -9 -13 -9 6 -1 1 -7 -9 -15 -11
-8 -25 -12 -32 -9 -8 3 -13 -2 -13 -12 0 -13 -5 -15 -17 -9 -10 4 -28 7 -41 7
-16 -1 -22 3 -18 13 3 8 1 14 -4 14 -6 0 -10 -6 -10 -14 0 -11 -10 -13 -42 -9
-24 2 -50 7 -58 10 -8 4 -18 6 -22 5 -4 -1 -6 7 -5 17 2 27 45 25 50 -3 4 -20
4 -20 6 2 0 13 5 21 9 18 5 -3 27 -6 50 -7 30 -2 42 -7 42 -18 0 -12 3 -12 12
-3 7 7 29 12 50 12 41 0 51 15 18 25 -11 4 -18 10 -15 14 2 5 -7 19 -21 32
-22 21 -36 23 -122 26 -53 1 -106 5 -117 7 -21 5 -226 27 -280 29 -26 2 -30 5
-27 27 2 14 12 34 23 46 10 11 19 26 19 32 0 11 22 16 72 16 13 0 15 3 7 18
-12 22 -41 25 -33 3 4 -8 1 -15 -5 -15 -6 0 -11 8 -11 18 0 13 -2 14 -9 4 -5
-8 -22 -12 -42 -10 -26 2 -33 7 -31 20 2 13 -2 16 -15 11 -10 -4 -21 -11 -25
-17 -4 -6 -12 -5 -22 3 -13 11 -16 11 -16 0 0 -11 -2 -11 -10 1 -6 10 -10 11
-10 3 0 -20 -20 -15 -21 5 0 10 -3 12 -6 5 -7 -18 -23 -16 -23 3 0 11 8 15 28
13 15 -2 32 0 39 4 6 4 14 3 17 -2 4 -5 22 -7 41 -4 32 5 35 3 36 -18 l0 -24
11 25 11 25 5 -24 c2 -14 7 -20 11 -13 20 33 125 14 106 -20 -6 -10 -5 -10 4
-2 15 13 5 42 -17 48 -26 9 -107 16 -220 21 -76 3 -102 1 -101 -8 4 -32 -2
-36 -43 -31 -24 2 -71 6 -105 8 -80 5 -123 15 -123 28 0 6 -6 6 -15 -2 -12
-10 -16 -9 -21 4 -8 22 1 30 23 21 10 -5 43 -9 73 -11 30 -1 67 -7 83 -13 22
-9 27 -8 27 4 0 8 -9 15 -20 15 -11 0 -20 7 -20 15 0 9 -6 12 -16 8 -9 -3 -20
0 -25 8 -5 9 -9 10 -9 2 0 -7 -12 -10 -31 -8 -42 6 -48 14 -25 31 15 10 23 11
33 2 7 -6 16 -8 19 -5 3 3 17 1 31 -4 15 -5 30 -6 37 -1 19 15 64 23 71 12 10
-16 121 -12 135 5 6 8 9 18 6 23 -11 19 23 36 47 24 19 -9 73 -15 247 -27 57
-4 175 -14 218 -19 20 -2 32 1 32 8 0 7 -15 12 -37 12 -20 0 -38 5 -41 12 -4
14 -32 16 -32 2 0 -5 -7 -10 -15 -10 -8 0 -15 6 -15 13 0 8 -4 7 -10 -3 -9
-13 -10 -13 -10 0 0 12 -2 13 -9 1 -7 -11 -11 -10 -20 5 -6 11 -11 13 -11 7 0
-7 -5 -13 -11 -13 -5 0 -7 4 -4 10 4 6 -2 7 -17 1 -13 -5 -34 -7 -48 -6 -14 1
-37 3 -52 4 -21 1 -28 6 -28 21 0 22 4 23 35 11 11 -5 25 -4 32 1 7 6 20 5 33
-2 12 -7 32 -9 44 -6 11 3 27 2 34 -3 7 -4 33 -5 57 -1 25 4 45 4 45 0 0 -15
49 -33 62 -23 10 8 113 11 113 3 0 -1 10 -3 22 -4 50 -6 43 -26 -11 -32 -28
-2 -36 1 -37 14 0 10 -3 12 -6 5 -6 -17 -30 -17 -35 -1 -3 7 -7 3 -10 -9 -5
-19 -1 -23 28 -29 51 -9 102 3 109 27 13 40 -15 52 -122 54 -54 0 -104 4 -111
9 -6 4 -54 9 -105 12 -50 2 -113 5 -139 7 -42 2 -48 5 -48 23 0 39 -31 52
-129 53 -45 1 -52 4 -47 17 4 9 1 23 -6 32 -11 13 -10 14 7 9 39 -11 210 -16
255 -8 25 5 37 9 27 10 -10 0 -15 6 -12 11 3 6 -3 10 -14 10 -12 0 -21 -5 -21
-10 0 -16 -141 -4 -151 12 -6 9 -9 9 -9 1 0 -6 -15 -10 -37 -10 -26 2 -38 7
-38 17 0 12 13 15 64 13 39 -2 68 -8 73 -15 5 -9 8 -7 9 7 1 17 2 16 9 -5 6
-18 8 -20 9 -7 1 14 6 17 24 11 12 -4 25 -12 29 -18 6 -8 8 -8 8 1 0 18 36 26
60 13 16 -8 24 -8 35 3 12 13 20 13 53 1 22 -7 95 -15 163 -17 68 -3 162 -8
209 -11 47 -4 119 -8 161 -10 41 -1 81 -6 88 -10 7 -5 63 -10 124 -12 62 -2
151 -7 199 -12 116 -12 168 -5 168 21 0 7 4 6 10 -3 9 -13 10 -13 10 0 -1 38
-71 60 -191 62 -35 0 -69 4 -74 9 -6 4 -71 10 -145 14 -74 3 -166 8 -205 11
-38 3 -111 7 -162 9 -50 2 -100 6 -111 9 -10 4 -79 9 -153 12 -289 11 -344 15
-353 24 -13 13 21 50 46 50 18 0 18 1 -2 22 -28 30 -25 41 8 24 16 -8 60 -14
112 -15 47 -1 99 -3 115 -6 17 -2 73 -7 125 -10 52 -3 145 -10 205 -15 61 -5
169 -12 241 -16 129 -6 132 -6 147 16 24 34 6 57 -48 65 -32 5 -46 13 -51 27
-8 27 -20 11 -27 -37 -4 -27 -3 -35 3 -25 13 21 50 22 50 1 0 -14 2 -14 10 -1
8 13 11 13 19 1 7 -11 11 -10 19 5 6 10 14 16 18 12 4 -4 2 -14 -5 -22 -9 -11
-9 -15 1 -20 7 -3 -30 -4 -82 -1 -140 8 -387 24 -450 30 -30 2 -136 10 -235
16 -106 6 -191 17 -208 24 -15 8 -25 9 -22 4 4 -5 -17 -9 -48 -9 -50 0 -55 2
-50 20 7 25 20 26 26 3 4 -16 5 -16 6 -1 1 14 11 16 77 12 51 -2 80 -9 91 -20
13 -12 17 -13 24 -2 10 17 71 11 82 -8 9 -16 27 -19 27 -3 0 5 -5 7 -10 4 -16
-10 -12 11 5 25 17 14 20 30 4 30 -5 0 -7 -4 -4 -10 3 -5 1 -10 -4 -10 -6 0
-11 8 -11 18 0 15 9 17 87 13 49 -1 109 -4 136 -4 40 -2 47 -5 47 -22 1 -18 2
-17 15 5 8 14 14 21 15 15 0 -9 55 -12 100 -7 12 2 12 4 2 11 -8 4 -40 7 -73
7 -32 -1 -59 1 -59 4 0 3 -28 6 -62 8 -35 1 -89 5 -120 8 -69 7 -118 -2 -118
-22 0 -11 -6 -13 -21 -9 -15 5 -19 4 -15 -4 4 -6 2 -11 -3 -11 -6 0 -11 6 -11
13 0 8 -3 9 -8 1 -4 -6 -29 -10 -57 -9 -27 2 -60 3 -72 4 -15 1 -23 8 -24 19
0 13 -3 12 -11 -5 -6 -13 -15 -23 -20 -23 -5 0 -7 4 -3 9 3 5 0 13 -6 17 -8 4
-9 3 -5 -4 4 -7 2 -12 -3 -12 -6 0 -11 8 -11 18 0 14 8 18 35 18 19 0 35 -3
35 -7 0 -7 44 -4 59 5 5 4 12 2 16 -3 6 -11 100 -9 111 2 7 7 -9 10 -37 8 -28
-3 -69 18 -69 35 0 20 -28 43 -52 44 -10 0 -18 4 -18 10 0 5 -9 6 -22 2 -13
-4 -41 -7 -63 -5 -22 2 -61 3 -87 3 -41 0 -48 3 -48 19 0 11 5 23 10 26 6 3
10 2 10 -3 0 -5 18 -8 41 -7 30 2 39 -1 35 -11 -3 -8 -1 -14 4 -14 6 0 10 7
10 15 0 8 4 15 10 15 5 0 8 -6 6 -12 -1 -7 -1 -10 1 -5 3 4 21 7 41 7 51 0 35
9 -29 16 -30 3 -59 10 -65 15 -6 5 -18 7 -26 4 -9 -4 -18 1 -22 10 -5 14 -8
15 -20 2 -17 -17 -65 -14 -76 4 -5 7 -16 9 -26 5 -11 -4 -34 -9 -51 -12 -28
-3 -32 -1 -30 16 4 27 17 38 17 15 0 -18 1 -18 15 1 12 16 16 17 24 4 6 -8 13
-11 18 -7 13 14 -21 28 -55 23 -30 -4 -32 -3 -26 20 3 13 3 24 0 24 -3 0 -6
-4 -6 -10z m-33 -46 c12 -3 21 -13 20 -23 -1 -15 -8 -16 -50 -10 -55 9 -62 13
-52 28 7 12 47 14 82 5z m146 -68 c60 -1 67 -3 67 -21 0 -17 -6 -20 -43 -19
-24 1 -52 6 -64 12 -11 6 -23 8 -27 5 -6 -7 -54 -6 -101 1 -25 4 -31 23 -9 28
9 1 38 1 63 -1 25 -2 76 -5 114 -5z m-53 -62 c63 -4 96 -10 110 -19 6 -3 10
-2 10 3 0 5 21 8 47 7 34 -2 47 -7 49 -19 1 -9 -2 -16 -7 -16 -5 0 -9 6 -9 13
0 8 -3 8 -8 2 -8 -12 -52 -18 -52 -7 0 4 -47 7 -105 7 -88 0 -105 2 -105 15 0
13 -2 13 -10 0 -11 -18 -25 -6 -16 16 4 10 12 14 24 9 9 -3 42 -8 72 -11z
m265 -21 c-4 -12 -3 -15 4 -8 15 15 111 6 111 -11 0 -17 -41 -19 -59 -1 -10 8
-12 8 -7 0 3 -6 2 -14 -4 -18 -5 -3 -10 -2 -10 4 0 5 -11 8 -25 5 -19 -3 -25
0 -25 14 0 10 3 22 7 25 11 12 15 7 8 -10z m-275 -50 c1 -16 2 -16 10 -3 7 13
29 17 71 11 3 -1 6 -8 6 -17 0 -14 -10 -16 -64 -11 -68 5 -79 9 -68 26 10 18
45 13 45 -6z m190 -5 c0 -5 9 -4 20 2 28 15 60 3 60 -21 0 -10 -4 -19 -10 -19
-5 0 -10 7 -10 15 0 8 -7 15 -15 15 -8 0 -15 -4 -15 -8 0 -5 -18 -9 -40 -9
-22 0 -40 5 -40 11 0 6 -4 4 -10 -4 -11 -17 -25 -7 -17 13 5 14 77 19 77 5z
m-169 -56 c1 -15 2 -15 6 1 2 9 8 17 13 17 5 0 7 -8 4 -17 -5 -17 -5 -16 6 0
13 20 47 15 68 -11 11 -14 12 -13 12 6 0 22 14 30 25 13 3 -5 17 -8 30 -5 20
4 25 0 25 -17 0 -21 -2 -21 -107 -15 -133 8 -163 14 -163 31 0 8 14 13 40 13
31 1 40 -3 41 -16z m239 -18 c0 -8 -9 -14 -20 -14 -13 0 -20 7 -20 19 0 14 5
18 20 14 11 -3 20 -12 20 -19z m-257 -20 c26 1 36 -3 32 -11 -2 -7 0 -13 5
-13 6 0 10 5 10 10 0 6 16 10 35 8 27 -2 34 -6 30 -18 -5 -13 -4 -13 7 0 14
17 49 15 60 -4 5 -8 11 -7 20 2 17 17 28 15 29 -5 1 -17 2 -17 6 0 2 9 9 17
14 17 6 0 7 -6 3 -12 -5 -10 -4 -10 6 -1 10 9 18 8 36 -4 15 -9 24 -11 24 -4
0 6 5 11 11 11 5 0 7 -4 4 -10 -3 -5 -1 -10 4 -10 6 0 11 5 11 10 0 6 9 10 20
10 11 0 20 -2 20 -4 0 -2 3 -12 6 -21 6 -15 -2 -16 -92 -10 -55 3 -115 8 -134
10 -19 2 -80 7 -136 10 -100 7 -101 8 -96 31 3 17 8 22 16 15 6 -5 28 -8 49
-7z m-3 -76 c0 -17 -3 -19 -9 -9 -5 8 -11 9 -15 3 -9 -14 -46 -3 -46 14 0 9
12 14 35 14 30 0 35 -3 35 -22z m80 11 c42 -13 100 -18 100 -8 0 4 17 5 38 2
20 -2 59 -6 87 -9 56 -6 63 -10 48 -25 -16 -16 -69 -7 -65 11 1 8 -7 4 -18
-10 l-20 -25 -1 25 c0 14 -3 19 -6 11 -5 -11 -7 -11 -14 0 -6 10 -9 11 -9 2 0
-20 -20 -15 -20 5 -1 16 -1 16 -10 0 -8 -14 -22 -16 -78 -12 -37 3 -69 10 -71
15 -1 6 -9 2 -17 -8 -13 -17 -13 -17 -14 4 0 12 7 23 18 26 9 3 17 5 17 6 0 0
16 -4 35 -10z m-51 -65 c3 -2 0 -9 -6 -15 -7 -7 -28 -9 -57 -5 -44 7 -54 15
-39 30 7 7 93 -1 102 -10z m71 -1 c0 -10 4 -14 8 -8 8 11 132 14 132 4 0 -4
23 -7 50 -6 28 0 53 -2 55 -5 3 -3 19 -4 35 -2 31 4 39 -7 18 -23 -17 -14
-138 -4 -138 11 0 6 -5 4 -10 -4 -8 -13 -10 -12 -10 3 0 9 -4 17 -10 17 -5 0
-10 -4 -10 -10 0 -6 -28 -10 -65 -10 -59 0 -65 2 -65 21 0 11 -4 18 -10 14 -5
-3 -7 -12 -3 -20 6 -18 -13 -20 -23 -3 -4 6 1 17 11 25 25 18 35 16 35 -4z
m470 -50 c0 -7 -11 -13 -25 -13 -14 0 -25 6 -25 13 0 7 -3 8 -8 2 -4 -5 -14
-9 -22 -9 -8 1 -25 2 -37 3 -13 1 -23 7 -23 16 0 11 10 14 41 12 22 -2 42 0
45 4 6 11 54 -14 54 -28z m-614 -3 c20 0 34 -5 35 -12 0 -7 4 -4 9 7 9 20 9
20 9 0 1 -16 3 -17 11 -5 7 11 12 12 21 3 16 -16 2 -33 -24 -29 -12 3 -36 5
-54 5 -17 1 -38 8 -47 16 -9 10 -17 11 -21 5 -8 -13 -25 -3 -25 15 0 11 6 12
26 5 14 -6 41 -10 60 -10z m785 8 c19 -1 40 2 47 6 7 4 12 2 12 -5 0 -8 14
-10 43 -7 41 5 43 4 39 -17 -3 -20 -8 -22 -38 -15 -19 5 -43 6 -53 3 -10 -3
-21 0 -25 5 -3 6 -20 7 -39 2 -37 -8 -97 -2 -97 10 0 13 -39 19 -44 6 -2 -6
-5 -4 -5 5 -1 14 9 16 62 12 34 -2 78 -4 98 -5z m-621 -26 c0 -10 3 -13 8 -6
7 10 132 14 132 4 0 -14 -40 -26 -85 -24 -67 2 -65 2 -65 20 0 8 -5 12 -10 9
-6 -4 -8 -11 -5 -16 4 -5 -1 -9 -9 -9 -15 0 -22 21 -11 31 12 13 45 6 45 -9z
m897 5 c3 -3 11 -3 19 0 9 3 14 -2 14 -16 0 -19 -13 -22 -50 -11 -3 1 -24 2
-47 2 -35 0 -43 4 -43 18 0 16 7 18 51 15 27 -1 53 -5 56 -8z m123 -8 c0 -3
10 -5 23 -3 61 9 62 9 65 -13 2 -16 -2 -23 -12 -23 -9 0 -16 8 -16 18 -1 16
-1 16 -10 0 -10 -17 -48 -16 -96 2 -15 6 -24 5 -28 -3 -2 -7 -5 -3 -5 8 -1 18
5 21 39 20 22 0 40 -3 40 -6z m173 -13 c18 -4 35 -2 45 6 12 10 16 10 19 0 3
-6 9 -10 14 -6 5 3 9 -5 9 -17 0 -20 -3 -21 -42 -15 -29 5 -44 3 -50 -6 -8
-10 -11 -10 -15 0 -2 6 -11 12 -19 12 -8 0 -14 10 -14 26 0 20 3 24 13 17 6
-6 25 -13 40 -17z m202 -16 c8 -7 25 -10 40 -6 17 4 25 2 25 -6 0 -8 5 -5 11
5 6 9 14 15 19 12 5 -3 33 -8 62 -11 56 -6 78 -17 58 -29 -20 -12 -113 -6
-122 7 -4 8 -8 9 -8 2 0 -9 -62 -12 -80 -4 -3 1 -9 2 -13 1 -4 -1 -15 6 -24
15 -16 15 -17 15 -23 -1 -6 -16 -7 -16 -22 -1 -12 12 -18 13 -21 3 -3 -7 -6
-6 -6 5 -1 9 5 18 12 21 21 8 76 0 92 -13z m-1572 -6 c3 -4 35 -7 70 -9 35 -1
72 -7 83 -13 17 -10 17 -11 -9 -17 -34 -9 -115 1 -132 15 -10 8 -15 8 -20 -1
-6 -8 -10 -7 -16 2 -5 8 -9 17 -9 22 0 9 24 10 33 1z m242 -22 c53 -4 77 -11
70 -23 -9 -14 -65 -11 -65 4 0 7 -3 8 -8 2 -11 -15 -42 -18 -42 -3 0 9 -3 9
-10 -2 -8 -12 -10 -11 -10 6 0 23 11 38 19 26 3 -4 24 -9 46 -10z m-91 -55 c3
3 6 -1 6 -9 0 -9 -8 -22 -17 -29 -15 -12 -16 -12 -10 3 4 12 2 15 -9 11 -8 -3
-14 1 -14 8 0 12 -2 12 -9 0 -9 -14 -51 -7 -51 9 0 12 61 18 81 8 9 -4 19 -4
23 -1z m58 -9 c23 4 29 1 26 -9 -2 -8 -19 -15 -36 -17 -29 -3 -32 -1 -31 25 1
15 3 21 6 12 3 -11 12 -14 35 -11z m175 -12 c4 -3 13 0 21 7 12 9 16 9 19 0 3
-7 18 -13 34 -13 19 0 29 -5 29 -15 0 -18 -65 -21 -75 -4 -5 6 -12 4 -21 -8
-12 -17 -13 -16 -14 7 -1 23 -2 23 -10 5 -9 -20 -9 -20 -10 0 -1 11 -4 14 -7
8 -2 -7 -11 -13 -19 -13 -9 0 -12 5 -8 12 5 7 3 8 -7 2 -17 -11 -79 -15 -79
-6 0 22 128 38 147 18z m-337 -38 c8 0 27 3 43 6 15 2 27 0 27 -5 0 -6 5 -7
10 -4 12 7 26 -22 16 -33 -4 -3 -11 0 -16 8 -7 11 -10 11 -10 2 0 -13 -37 -10
-66 6 -9 5 -25 7 -35 5 -13 -4 -19 0 -19 12 0 12 5 15 18 10 9 -4 24 -7 32 -7z
m180 -15 c0 -10 4 -14 8 -8 7 10 132 14 132 4 0 -32 -182 -39 -188 -6 -3 13
10 21 41 26 4 0 7 -7 7 -16z m250 -30 c0 -27 -15 -30 -29 -5 -6 9 -11 11 -11
5 0 -18 -70 -17 -70 0 0 20 4 22 59 22 46 0 51 -2 51 -22z m-420 -223 c0 -23
-4 -24 -31 -9 -23 12 -16 29 12 29 12 0 19 -7 19 -20z m80 1 c0 -13 2 -14 9
-2 7 11 14 11 41 -3 24 -12 37 -13 46 -5 7 6 18 8 23 5 5 -4 12 -2 16 4 4 7
12 7 26 0 10 -6 19 -8 19 -5 0 3 9 1 19 -5 13 -7 22 -7 26 0 10 16 25 12 25
-6 0 -12 3 -14 13 -6 8 6 21 6 37 0 22 -8 23 -10 8 -19 -24 -14 -74 -5 -70 12
1 9 -3 8 -11 -3 -17 -22 -21 -22 -41 -2 -9 8 -16 11 -16 5 0 -6 -7 -11 -15
-11 -9 0 -12 6 -9 18 5 15 4 15 -10 -2 -9 -11 -20 -15 -28 -10 -7 5 -33 9 -58
10 -61 2 -60 2 -60 22 -1 15 -2 14 -12 -3 -6 -11 -12 -21 -13 -23 -7 -9 -35
13 -35 27 0 13 9 17 35 17 25 0 35 -4 35 -15z m-80 -58 c11 -17 11 -17 6 0 -6
20 -2 21 25 7 43 -24 2 -45 -56 -29 -38 11 -45 25 -17 32 29 8 31 7 42 -10z
m86 -2 c-3 -4 6 -6 19 -3 20 3 25 0 25 -18 0 -18 -4 -20 -22 -14 -13 4 -28 7
-35 7 -6 0 -14 9 -16 19 -4 13 0 18 15 18 10 0 17 -4 14 -9z m84 -23 c0 17 20
15 20 -3 0 -9 -9 -15 -25 -15 -21 0 -25 5 -25 28 l1 27 14 -25 c8 -14 14 -19
15 -12z m81 0 c0 -10 2 -10 6 0 7 17 32 15 39 -3 4 -8 10 -12 15 -9 5 3 7 10
4 15 -9 14 9 11 31 -5 24 -18 14 -28 -28 -27 -78 2 -105 11 -93 30 9 15 25 14
26 -1z m-239 -43 c5 -23 3 -24 -30 -20 -40 5 -63 22 -41 29 12 4 42 11 60 15
4 0 9 -10 11 -24z m193 -7 c1 -1 -1 -12 -6 -23 -6 -17 -8 -17 -8 -2 -1 19 -26
23 -36 7 -5 -8 -11 -7 -21 1 -10 8 -14 8 -14 0 0 -18 -38 -13 -49 7 -6 9 -11
11 -11 5 0 -7 -4 -13 -10 -13 -5 0 -7 7 -3 16 5 12 19 14 80 11 41 -3 76 -7
78 -9z m90 -10 c6 0 20 2 33 6 16 6 22 3 22 -8 0 -9 -7 -16 -15 -16 -8 0 -15
-5 -15 -11 0 -6 -13 -8 -37 -3 -21 3 -46 6 -55 6 -17 -1 -25 18 -13 30 4 4 37
3 80 -4z m136 -15 c0 -10 3 -13 5 -7 3 7 21 8 52 3 26 -4 52 -3 58 2 15 12 56
-1 50 -17 -3 -7 -1 -16 4 -19 6 -4 10 3 10 14 0 12 5 21 10 21 6 0 10 -4 10
-9 0 -6 10 -8 22 -6 12 3 27 0 34 -6 7 -6 22 -8 34 -4 17 5 20 2 20 -19 0 -31
-4 -32 -31 -5 -12 12 -24 17 -28 12 -3 -5 -25 -10 -49 -12 -36 -1 -45 2 -49
17 -4 17 -8 18 -41 7 -20 -6 -58 -10 -84 -7 -43 4 -48 7 -48 28 0 27 20 33 21
7z m-436 -23 c11 4 31 3 43 -1 13 -5 27 -7 32 -4 5 3 20 0 35 -7 19 -9 28 -9
37 0 8 8 15 9 25 1 7 -7 13 -9 13 -5 0 3 11 1 25 -4 17 -6 25 -6 25 1 0 6 5 7
10 4 6 -3 10 -14 10 -23 0 -14 -8 -17 -47 -13 -27 2 -52 7 -58 11 -5 4 -33 6
-62 4 -37 -2 -57 1 -68 12 -9 9 -15 11 -15 4 0 -7 -5 -8 -16 -2 -9 5 -25 7
-35 5 -12 -4 -19 0 -19 9 0 23 12 29 29 14 10 -8 24 -11 36 -6z m895 -10 c0
-5 7 -10 15 -10 8 0 15 -7 15 -15 0 -8 -7 -15 -15 -15 -8 0 -15 5 -15 10 0 15
-19 12 -36 -5 -12 -11 -20 -12 -35 -5 -11 6 -24 8 -29 5 -6 -4 -13 1 -16 10
-6 13 -8 14 -15 3 -7 -10 -9 -9 -9 5 0 16 7 18 55 14 30 -2 55 0 55 4 0 5 7 9
15 9 8 0 15 -4 15 -10z m-525 -20 c-3 -5 10 -8 32 -6 40 4 93 -11 105 -28 5
-7 8 -4 8 7 0 15 3 15 20 5 13 -9 23 -9 30 -2 5 5 26 8 45 6 29 -3 35 -8 35
-27 0 -22 -3 -23 -37 -18 -21 3 -44 11 -52 17 -11 8 -15 8 -18 0 -5 -14 -44
-6 -55 10 -5 8 -8 7 -8 -1 0 -20 -20 -15 -21 5 0 15 -1 14 -8 -3 -7 -18 -8
-18 -18 -1 -8 15 -15 16 -46 8 -27 -8 -37 -7 -38 1 0 8 -2 8 -6 0 -7 -19 -23
-16 -24 5 0 10 -3 12 -6 5 -7 -18 -23 -16 -23 3 0 12 7 15 30 12 17 -3 33 -1
36 4 3 4 10 8 15 8 6 0 8 -4 4 -10z m326 -30 c5 0 9 -9 9 -20 0 -11 -4 -20
-10 -20 -5 0 -10 8 -10 17 0 15 -2 15 -14 -2 -13 -18 -13 -17 -13 9 0 20 3 26
14 22 8 -3 19 -6 24 -6z m329 -29 c0 -5 19 -8 42 -6 23 2 48 0 57 -4 9 -5 27
-11 41 -12 14 -2 28 -8 32 -14 4 -6 8 -2 8 8 0 9 5 17 10 17 6 0 10 -5 10 -10
0 -6 10 -14 23 -19 20 -8 19 -9 -13 -15 -51 -9 -110 -2 -119 13 -7 11 -16 11
-38 3 -17 -5 -41 -8 -55 -5 -20 4 -24 9 -20 29 4 23 22 35 22 15z m-650 -17
c0 -11 -8 -14 -27 -12 -39 4 -42 28 -4 28 21 0 31 -5 31 -16z m50 4 c0 -9 3
-8 10 2 7 12 12 12 21 3 9 -9 9 -16 1 -26 -12 -14 -45 -17 -49 -4 -6 17 -2 37
7 37 6 0 10 -6 10 -12z m-362 -25 c15 -2 61 -5 102 -7 66 -2 75 -4 78 -22 2
-17 -2 -19 -40 -16 -24 2 -50 6 -58 9 -8 3 -47 7 -87 8 -71 3 -93 8 -93 25 0
11 30 19 53 13 11 -3 31 -7 45 -10z m291 -22 c0 -3 -4 -15 -9 -26 -8 -19 -9
-19 -9 -1 -1 20 -1 20 -15 0 -14 -18 -15 -18 -22 -1 -5 15 -9 16 -15 5 -7 -10
-9 -10 -9 3 0 9 2 18 4 20 7 6 76 6 75 0z m65 -7 c9 -3 13 -10 10 -15 -3 -5 0
-9 5 -9 6 0 11 4 11 8 0 5 16 8 37 8 28 -1 37 -6 39 -21 3 -18 -2 -20 -51 -17
-41 3 -55 8 -55 19 0 11 -7 13 -30 8 -32 -7 -44 10 -12 18 27 7 29 7 46 1z
m156 -29 c0 -8 4 -15 10 -15 5 0 7 7 4 15 -4 8 -1 15 5 15 6 0 11 -9 11 -20 0
-15 -7 -20 -26 -20 -20 0 -25 4 -20 16 5 14 4 15 -8 5 -9 -7 -16 -8 -20 -2 -5
8 8 15 37 20 4 0 7 -6 7 -14z m61 -7 l2 -23 4 23 c3 17 10 21 26 17 12 -2 33
-6 47 -7 14 -2 31 -12 38 -23 12 -20 12 -20 10 0 -2 13 2 19 12 16 17 -4 75
-8 138 -10 31 -1 42 -5 42 -17 0 -10 -6 -14 -15 -10 -8 3 -19 -2 -24 -12 -9
-15 -11 -14 -12 8 -1 19 -2 21 -6 6 -4 -17 -12 -18 -65 -12 -34 3 -72 6 -84 6
-16 0 -24 6 -25 18 0 10 -3 12 -6 5 -2 -7 -15 -13 -29 -13 -18 0 -22 4 -18 18
5 16 5 16 -9 0 -21 -27 -47 -23 -47 7 0 31 19 33 21 3z m409 -30 c0 -13 28 -9
32 4 3 7 9 8 19 3 15 -10 32 -15 66 -18 13 -1 23 -6 23 -12 0 -5 4 -4 8 3 7
10 14 10 36 -2 26 -13 26 -15 10 -23 -11 -5 -45 -7 -76 -5 -44 3 -58 8 -58 19
0 11 -6 14 -22 9 -13 -4 -40 -10 -61 -13 -35 -5 -37 -4 -33 18 3 13 5 25 5 25
3 6 51 -3 51 -8z m-1052 -16 c29 0 66 -5 82 -12 22 -9 34 -10 43 -1 18 14 26
5 20 -19 -3 -12 -10 -17 -17 -12 -6 4 -37 7 -69 7 -40 1 -61 6 -67 15 -8 12
-10 12 -10 1 0 -11 -3 -11 -15 -1 -8 6 -23 9 -35 5 -14 -4 -20 -2 -20 8 0 20
11 28 24 18 6 -5 35 -9 64 -9z m230 -38 c2 -17 -2 -19 -38 -16 -23 2 -40 9
-40 16 0 19 5 21 42 20 25 -1 34 -6 36 -20z m124 2 c4 -6 13 -4 23 4 14 12 18
12 26 -1 5 -8 9 -11 9 -7 0 10 63 -13 72 -26 5 -7 8 -4 8 7 0 14 4 16 17 9 9
-5 34 -7 56 -4 27 3 38 2 33 -6 -3 -6 -2 -13 4 -17 5 -3 10 0 10 8 0 9 9 13
23 12 12 -1 28 -3 35 -4 15 -1 16 -51 1 -51 -6 0 -8 9 -4 23 6 21 5 21 -9 4
-11 -15 -23 -18 -53 -13 -21 3 -43 5 -50 6 -8 0 -10 7 -6 18 6 16 6 16 -10 1
-23 -23 -147 -13 -132 11 7 11 -18 14 -28 3 -11 -11 -57 -10 -57 2 0 5 -4 3
-10 -5 -8 -12 -10 -12 -16 4 -5 13 -9 15 -15 5 -10 -16 -23 -5 -17 13 6 15 79
18 90 4z m-294 -24 c8 8 12 8 12 2 0 -10 8 -13 53 -16 12 -1 25 -7 29 -12 5
-8 8 -7 8 0 0 8 17 11 46 9 46 -4 74 -18 61 -31 -10 -10 -112 -5 -137 7 -5 2
-37 4 -107 8 -24 1 -33 6 -33 19 -1 15 -2 15 -10 1 -10 -17 -80 -15 -80 3 0 6
6 8 14 5 7 -3 19 0 25 6 9 9 14 9 20 -1 7 -11 9 -11 14 2 5 14 10 14 40 1 26
-11 37 -11 45 -3z m682 -19 c0 -6 4 -15 10 -18 6 -4 7 1 3 10 -5 15 2 16 63
10 38 -4 84 -7 102 -6 23 1 32 -3 32 -14 0 -8 -7 -15 -15 -15 -8 0 -15 -5 -15
-10 0 -6 -17 -9 -42 -6 -96 12 -154 18 -169 19 -11 1 -16 10 -15 24 1 17 7 22
24 20 12 -1 22 -7 22 -14z m-344 -13 c6 -6 39 -12 75 -14 35 -2 75 -8 89 -13
14 -5 41 -8 60 -6 19 1 51 -2 71 -8 80 -20 206 -27 235 -11 16 9 26 7 45 -6
15 -10 45 -17 79 -18 30 -1 87 -6 125 -12 39 -5 102 -15 140 -21 39 -5 88 -12
110 -15 22 -3 41 -5 43 -6 1 0 2 -5 2 -11 0 -6 -8 -8 -19 -4 -10 3 -70 8 -132
11 -134 6 -162 8 -253 23 -37 7 -76 9 -87 6 -10 -3 -38 1 -63 9 -25 9 -76 18
-113 21 -64 6 -95 8 -285 19 -116 7 -239 28 -235 40 7 21 95 34 113 16z m-286
-36 c25 -3 58 -6 75 -7 20 -1 31 -8 33 -21 4 -17 -1 -18 -50 -12 -29 4 -78 9
-109 10 -68 4 -119 15 -119 25 0 17 15 20 69 14 31 -3 76 -7 101 -9z m229 -28
c8 -5 16 -4 21 5 7 10 12 10 23 1 7 -7 17 -9 20 -5 4 3 7 -2 7 -13 0 -11 3
-15 8 -9 8 12 61 13 80 2 7 -5 21 -5 32 -2 14 5 20 2 20 -9 0 -9 4 -16 10 -16
5 0 7 7 4 15 -5 11 1 15 20 15 20 0 26 -5 26 -21 0 -11 4 -18 10 -14 5 3 6 13
3 22 -5 13 -2 15 11 10 10 -4 22 -7 27 -7 5 0 9 -11 9 -25 0 -14 -4 -25 -10
-25 -5 0 -10 10 -10 22 0 20 -1 21 -13 4 -10 -13 -22 -16 -54 -12 -23 3 -51
10 -63 16 -11 6 -20 7 -20 3 0 -4 -25 -6 -55 -5 -41 3 -55 8 -55 19 0 11 -7
14 -27 9 -17 -5 -29 -3 -34 6 -6 9 -9 8 -10 -7 0 -20 0 -20 -9 0 -5 11 -9 14
-9 8 -1 -7 -8 -13 -16 -13 -8 0 -15 6 -15 13 0 8 -4 7 -10 -3 -8 -12 -10 -11
-10 6 0 17 6 20 38 19 20 0 43 -5 51 -9z m448 -44 c2 -4 37 -6 78 -5 52 1 75
-2 75 -10 0 -17 -47 -37 -73 -31 -12 2 -53 6 -91 9 -38 2 -73 9 -76 16 -6 8
-9 7 -13 -2 -3 -8 -6 -2 -6 13 -1 27 0 27 52 22 28 -3 53 -9 54 -12z m224 -22
c10 6 19 7 19 2 0 -4 17 -8 37 -8 20 0 38 -5 40 -11 3 -9 41 -10 70 -1 4 1 18
-4 30 -12 34 -22 3 -38 -56 -29 -25 4 -49 5 -53 2 -5 -2 -8 3 -8 11 0 18 -4
19 -45 8 -17 -5 -42 -6 -56 -3 -24 5 -25 9 -17 31 6 14 12 20 15 13 3 -9 10
-10 24 -3z m738 -61 c-14 -28 -29 -23 -27 9 2 39 9 47 24 27 9 -13 10 -23 3
-36z m-458 17 c1 -18 2 -18 6 -3 4 17 12 18 76 12 40 -3 86 -9 102 -12 17 -3
44 -7 60 -9 17 -1 32 -3 35 -4 3 -1 20 -1 38 0 51 3 92 -20 91 -50 0 -14 -3
-19 -6 -12 -2 6 -14 12 -24 12 -11 0 -17 5 -14 10 3 6 -1 10 -9 10 -9 0 -16
-4 -16 -10 0 -5 -20 -7 -47 -4 -27 2 -73 7 -103 10 -30 3 -70 6 -87 6 -27 1
-33 5 -33 21 0 19 -1 19 -13 4 -9 -13 -22 -16 -47 -13 -19 3 -42 5 -51 5 -12
1 -15 8 -12 25 6 32 52 34 54 2z m449 -77 c0 -6 8 -8 19 -4 11 3 22 2 25 -3 3
-5 22 -8 42 -6 20 1 48 -2 61 -7 17 -6 30 -6 39 2 11 9 14 6 14 -21 0 -29 -2
-31 -27 -26 -31 7 -110 17 -162 20 -36 2 -47 15 -37 41 6 17 26 20 26 4z m298
-36 c37 -5 43 -9 40 -27 -2 -13 -9 -20 -18 -17 -8 2 -27 4 -42 5 -16 2 -37 3
-48 4 -12 1 -20 9 -20 20 0 24 10 34 29 27 8 -3 35 -9 59 -12z m-270 -58 c17
2 34 0 37 -5 3 -5 12 -7 20 -3 19 7 19 -8 0 -33 -9 -12 -18 -15 -22 -9 -5 6
-20 10 -35 11 -62 2 -68 4 -68 22 0 25 10 34 25 22 6 -5 25 -7 43 -5z m128
-27 c-3 -35 -22 -49 -32 -25 -6 18 12 57 26 57 6 0 8 -14 6 -32z"/>
<path d="M2454 1966 c-12 -31 2 -49 46 -62 38 -11 48 -11 67 2 13 8 23 19 23
25 0 6 -7 4 -15 -5 -17 -17 -74 -12 -87 8 -5 8 -8 7 -8 -1 0 -7 -4 -13 -10
-13 -5 0 -10 12 -10 26 0 24 3 26 28 20 71 -16 92 -18 92 -9 0 23 -118 31
-126 9z"/>
<path d="M2834 1969 c-51 -18 -55 -74 -6 -85 36 -9 43 -14 37 -24 -3 -5 -18
-5 -34 0 -23 6 -29 5 -25 -5 3 -7 13 -12 22 -11 11 1 17 -6 17 -19 0 -24 51
-53 66 -38 16 16 19 55 6 71 -9 12 -8 18 11 30 12 8 22 22 22 32 0 33 -75 65
-116 49z m20 -26 c4 -4 23 -6 42 -4 30 2 35 0 32 -16 -3 -15 -13 -18 -61 -18
-47 -1 -57 2 -57 16 0 22 29 36 44 22z m54 -118 c0 -23 -4 -35 -11 -32 -14 4
-21 32 -13 53 10 26 24 14 24 -21z"/>
<path d="M680 1940 c0 -5 18 -10 39 -10 22 0 43 5 46 10 4 6 -12 10 -39 10
-25 0 -46 -4 -46 -10z"/>
<path d="M2505 1881 c-3 -2 -5 -14 -5 -25 0 -13 3 -17 8 -9 10 16 152 13 152
-2 0 -7 7 -12 15 -12 8 0 15 4 15 8 0 4 10 10 23 12 17 4 15 5 -8 5 -16 1 -67
7 -113 15 -45 7 -85 11 -87 8z"/>
<path d="M2437 1828 c-4 -29 -9 -96 -12 -148 -4 -52 -13 -164 -21 -248 -8 -84
-12 -156 -9 -161 3 -6 1 -12 -5 -16 -5 -3 -10 -42 -9 -88 0 -45 3 -76 6 -69 5
13 33 17 33 4 0 -4 -6 -14 -12 -22 -11 -12 -10 -12 3 -2 27 20 43 -10 41 -76
-3 -78 4 -86 80 -87 35 0 69 -4 76 -8 6 -5 12 -4 12 1 0 5 11 7 25 4 14 -2 25
-7 25 -11 0 -3 28 -7 63 -8 34 -1 107 -4 162 -7 l100 -6 0 40 c0 25 -5 40 -12
40 -7 0 -21 10 -33 22 -16 17 -20 18 -20 6 0 -13 -11 -15 -67 -11 -38 3 -73
10 -80 15 -7 5 -14 5 -18 -2 -10 -16 -25 -1 -25 25 0 28 -25 25 -33 -4 -3 -15
-12 -18 -43 -15 -111 11 -161 15 -181 15 -25 -1 -31 23 -11 35 16 10 48 13 48
4 0 -4 20 -6 45 -5 32 1 45 -2 45 -12 0 -11 3 -11 13 -1 15 14 7 82 -12 101
-19 19 -13 24 31 30 26 3 48 1 57 -6 8 -7 51 -12 105 -13 50 0 114 -4 142 -8
l50 -8 -1 58 c-1 54 -3 59 -23 57 -16 -2 -22 3 -22 17 0 11 5 20 10 20 6 0 10
-5 10 -12 0 -16 29 23 30 40 0 8 -18 12 -57 11 -32 0 -52 -3 -45 -6 6 -2 12
-21 12 -41 0 -37 -15 -35 -22 3 -5 27 -38 33 -38 6 0 -13 5 -19 14 -15 9 4 14
-3 14 -20 0 -16 -5 -23 -14 -19 -8 3 -11 9 -8 14 3 5 -1 9 -10 9 -8 0 -17 6
-19 13 -4 10 -6 10 -6 0 -2 -22 -31 -14 -31 7 0 11 5 20 10 20 6 0 19 9 30 20
28 28 -3 28 -32 0 -16 -15 -24 -17 -29 -8 -4 7 -6 15 -3 19 7 13 -24 18 -143
25 -140 8 -163 15 -163 47 0 13 -9 32 -20 42 -21 19 -27 69 -11 93 13 21 46
10 49 -16 2 -12 15 -30 29 -40 14 -9 39 -31 57 -49 24 -24 43 -33 83 -38 49
-6 53 -5 74 24 19 25 29 30 59 29 20 -1 42 2 48 6 6 4 21 2 32 -4 11 -6 47
-12 80 -14 47 -3 60 -1 60 10 0 8 -6 14 -14 14 -8 0 -17 6 -19 13 -4 8 -8 9
-14 1 -4 -5 -24 -10 -43 -9 -30 0 -35 4 -38 28 -3 26 11 37 23 17 3 -5 12 -7
20 -3 8 3 15 0 15 -7 0 -6 5 -8 12 -3 7 4 22 7 33 8 11 0 21 7 23 16 3 14 -7
17 -60 17 -35 -1 -67 -4 -73 -8 -5 -5 -32 -3 -60 4 -43 11 -51 17 -55 42 -4
24 -10 29 -35 29 -17 0 -33 5 -37 10 -5 6 -8 5 -8 -2 0 -7 -4 -13 -10 -13 -5
0 -10 7 -10 15 0 8 5 15 11 15 5 0 7 5 4 11 -5 6 -12 4 -20 -8 -17 -23 -85
-28 -85 -6 0 12 -3 13 -14 4 -11 -9 -15 -9 -19 1 -4 10 -6 10 -6 1 -1 -7 -8
-13 -16 -13 -8 0 -15 6 -15 13 0 8 -4 7 -10 -3 -8 -12 -10 -11 -10 6 0 18 5
21 30 18 16 -2 32 1 35 6 4 6 14 6 28 -2 27 -14 52 -17 69 -7 14 9 -14 17 -75
22 -26 3 -43 11 -54 28 -9 13 -21 27 -25 30 -4 3 0 24 9 46 l18 41 73 -5 c59
-5 71 -3 67 8 -4 11 -23 13 -80 11 -73 -3 -75 -3 -76 20 -1 13 -1 26 0 31 0 4
-10 7 -23 7 -21 0 -24 -6 -29 -52z m39 6 c-5 -13 -10 -14 -18 -6 -6 6 -8 18
-4 28 5 13 10 14 18 6 6 -6 8 -18 4 -28z m-3 -44 c3 -10 -1 -25 -9 -31 -19
-16 -23 -10 -17 24 6 32 18 35 26 7z m17 -118 c0 -9 -7 -11 -22 -7 -34 11 -45
24 -29 34 17 11 51 -8 51 -27z m61 -92 c111 2 119 1 119 -20 0 -11 -7 -20 -15
-20 -8 0 -15 5 -15 11 0 6 -5 7 -12 2 -25 -15 -48 -13 -48 5 0 10 -3 13 -8 6
-4 -6 -31 -11 -59 -11 -45 -1 -53 2 -53 18 0 21 16 26 23 7 3 -8 6 -5 6 6 1
14 4 16 15 7 7 -6 29 -11 47 -11z m185 -6 c-3 -9 -6 -22 -6 -30 0 -19 -16 -18
-24 1 -8 21 3 45 21 45 10 0 13 -6 9 -16z m-213 -51 c6 -6 50 -12 105 -14 14
-1 22 -8 22 -20 0 -11 -4 -19 -10 -19 -5 0 -10 4 -10 10 0 5 -26 7 -65 3 l-65
-6 0 27 c0 25 10 33 23 19z m166 -24 c1 8 8 11 21 8 10 -3 21 0 24 7 2 6 5 2
5 -8 1 -14 4 -17 12 -9 16 16 59 4 59 -18 0 -21 -22 -38 -28 -21 -2 7 -17 12
-33 12 -18 0 -28 4 -24 10 3 6 1 10 -4 10 -6 0 -11 -4 -11 -10 0 -5 -11 -10
-25 -10 -18 0 -25 5 -25 18 0 27 13 36 21 15 5 -11 8 -12 8 -4z m-42 -49 c24
0 33 -5 34 -17 1 -17 2 -17 6 0 7 25 25 21 21 -5 -2 -15 -9 -21 -18 -19 -15 4
-52 9 -82 10 -13 1 -18 9 -18 28 0 21 3 24 12 15 7 -7 27 -12 45 -12z m-209
-56 c-1 -9 -8 -19 -15 -21 -10 -4 -11 8 -4 57 1 2 6 -1 12 -7 6 -6 9 -19 7
-29z m45 -79 c9 -4 28 -4 41 -1 14 3 36 2 50 -4 16 -6 27 -6 31 0 11 18 26 10
23 -12 -3 -20 -9 -23 -50 -24 -27 -1 -48 3 -48 8 0 5 -8 4 -19 -1 -10 -6 -21
-7 -25 -4 -3 3 -22 7 -41 7 -19 1 -35 4 -35 9 0 4 0 13 0 20 0 13 43 14 73 2z
m228 -15 c42 0 49 -3 49 -20 0 -15 -7 -20 -29 -20 -55 0 -91 12 -91 30 0 20
13 36 18 21 2 -6 26 -11 53 -11z m252 0 c-16 -6 -23 -18 -23 -35 0 -14 -4 -25
-10 -25 -14 0 -13 43 2 58 7 7 21 12 33 11 19 0 19 -1 -2 -9z m-513 -65 c0 -8
7 -15 15 -15 8 0 15 -7 15 -16 0 -12 -5 -14 -17 -9 -10 4 -29 8 -42 9 -33 1
-38 24 -9 35 33 14 38 13 38 -4z m220 -21 c0 -6 -7 -17 -15 -24 -12 -10 -15
-10 -16 1 0 8 -2 9 -5 4 -2 -6 -24 -9 -49 -7 -35 3 -45 8 -45 22 0 15 9 17 65
16 41 -1 65 -5 65 -12z m183 -22 c4 -23 -7 -39 -17 -24 -5 9 -73 9 -82 0 -3
-3 -18 1 -34 9 -48 24 -28 38 54 38 70 0 75 -2 79 -23z m115 6 c17 -2 15 -33
-3 -48 -13 -11 -15 -8 -16 16 0 19 -3 24 -7 14 -7 -15 -51 -22 -52 -7 -1 35 1
37 33 31 17 -2 38 -5 45 -6z m-450 -43 c-2 -12 -10 -18 -18 -16 -8 2 -36 3
-62 2 -41 -1 -48 1 -48 18 0 17 7 19 65 18 60 -2 65 -4 63 -22z m62 -6 c0 -13
-29 -31 -39 -24 -6 3 -10 16 -9 29 2 19 5 21 25 12 13 -6 23 -14 23 -17z m-90
-44 c1 12 4 15 7 7 4 -10 8 -10 19 -1 10 8 18 9 25 2 15 -15 -16 -36 -53 -35
-43 1 -59 19 -33 38 18 14 21 13 27 -8 5 -21 6 -21 8 -3z m113 -7 c-7 -41 -10
-45 -25 -30 -9 9 -9 18 0 37 17 36 33 31 25 -7z m-113 -120 c6 -15 9 -17 9 -7
1 12 10 15 35 14 18 -1 37 -5 42 -8 5 -2 42 -4 82 -3 59 2 72 0 72 -13 0 -11
3 -12 12 -3 9 9 15 9 26 0 10 -9 18 -9 32 0 12 7 21 8 25 2 3 -6 35 -10 71
-10 55 0 64 -2 64 -18 0 -23 -10 -33 -24 -25 -15 10 -86 10 -86 0 0 -5 -5 -5
-10 -2 -6 4 -8 10 -5 14 2 5 -17 7 -43 6 -57 -3 -72 2 -73 24 0 12 -3 10 -11
-6 -13 -27 -30 -29 -51 -8 -11 10 -17 11 -19 3 -3 -8 -9 -8 -19 -2 -8 5 -45 9
-84 9 -69 0 -70 0 -73 28 -4 33 15 36 28 5z"/>
<path d="M2721 1828 c0 -9 -7 -19 -13 -21 -12 -5 11 -9 67 -11 11 0 19 3 18 7
-2 4 -3 12 -3 19 0 6 -6 4 -13 -6 -15 -20 -44 -13 -50 12 -4 16 -5 16 -6 0z"/>
<path d="M1610 1695 c0 -8 -7 -15 -15 -15 -8 0 -15 -4 -15 -10 0 -14 -74 -12
-88 2 -9 9 -12 9 -12 0 0 -18 -28 -14 -39 6 -6 9 -11 11 -11 5 0 -16 -70 -18
-70 -2 0 7 -11 8 -31 4 -52 -12 -88 -12 -93 -1 -3 7 -5 6 -5 -1 -1 -7 -2 -16
-3 -20 -2 -4 17 -8 42 -10 25 -1 50 -2 57 -2 6 -1 14 -9 16 -18 4 -17 5 -17 6
0 0 9 5 17 10 17 5 0 12 -8 14 -17 4 -17 5 -17 6 -1 1 15 7 17 39 12 43 -7 45
-7 52 -4 25 9 40 6 40 -9 0 -21 27 -24 34 -4 7 18 26 16 26 -3 0 -8 4 -13 9
-10 5 4 12 0 14 -6 3 -7 6 -3 6 10 1 21 31 33 31 12 0 -5 7 -10 15 -10 8 0 15
5 15 11 0 8 4 8 13 2 6 -5 25 -8 40 -7 23 2 28 0 22 -14 -5 -14 -4 -15 6 -4
18 17 29 15 29 -5 0 -15 2 -16 10 -3 7 11 10 11 10 2 0 -7 5 -10 11 -7 6 4 8
13 5 21 -3 8 1 14 10 14 12 0 15 -6 11 -22 -6 -23 -6 -23 9 -3 14 18 13 21
-11 31 l-26 10 21 25 21 24 -6 -25 c-6 -24 -5 -24 9 -6 9 11 16 23 16 27 0 11
-69 19 -162 19 -72 0 -88 -3 -88 -15z m50 -26 c0 -10 -7 -19 -15 -19 -16 0
-19 9 -9 34 8 20 24 11 24 -15z m150 9 c0 -5 -12 -14 -26 -20 -21 -10 -27 -9
-35 3 -7 12 -9 12 -9 -1 0 -13 -1 -13 -10 0 -6 10 -10 11 -10 3 0 -7 -7 -13
-15 -13 -8 0 -15 6 -15 13 0 8 -4 7 -10 -3 -8 -12 -10 -12 -10 5 0 18 7 20 70
21 39 0 70 -3 70 -8z"/>
<path d="M2788 1695 c-27 -15 -44 -47 -34 -64 3 -5 39 -12 78 -15 40 -4 94 -9
121 -12 37 -5 47 -3 47 9 0 17 -55 25 -167 23 -53 -1 -73 2 -73 11 0 7 9 13
20 13 11 0 20 7 20 14 0 12 11 14 58 9 31 -3 72 -5 90 -5 26 0 32 -4 33 -22 0
-21 1 -21 11 2 7 14 8 26 2 31 -5 5 -47 12 -94 15 -66 5 -91 3 -112 -9z"/>
<path d="M707 1070 c-3 -11 -1 -20 4 -20 5 0 9 7 9 15 0 8 4 15 10 15 5 0 7
-8 4 -17 -5 -15 -4 -16 5 -3 9 12 13 13 20 2 7 -11 9 -11 14 1 8 20 -1 27 -34
27 -18 0 -28 -6 -32 -20z"/>
<path d="M2800 1026 c0 -10 9 -12 42 -6 48 9 58 6 59 -18 0 -14 2 -13 8 3 10
25 -7 33 -66 34 -30 1 -43 -3 -43 -13z"/>
<path d="M2494 871 c4 -6 14 -11 22 -11 8 0 14 -4 14 -9 0 -21 -13 -41 -26
-41 -8 0 -14 -3 -14 -7 0 -5 20 -7 44 -7 50 2 71 -8 63 -29 -4 -10 -20 -13
-64 -11 -32 1 -51 0 -41 -2 27 -8 32 -37 9 -56 -12 -9 -21 -18 -21 -20 0 -1
20 -2 45 -1 29 0 51 -5 60 -14 10 -9 15 -10 15 -3 0 8 16 10 53 6 28 -3 44 -3
35 0 -21 6 -26 74 -5 74 8 0 7 3 -3 10 -8 5 -17 5 -20 0 -3 -4 -17 -6 -31 -3
-20 4 -25 9 -22 24 3 10 12 19 19 19 30 0 12 20 -18 21 -57 2 -61 4 -64 26 -4
21 -1 22 49 17 76 -8 78 -9 67 -39 -10 -27 5 -43 32 -32 9 4 8 6 -2 6 -12 1
-15 10 -12 36 4 32 6 34 31 29 14 -4 23 -3 19 1 -4 4 -24 9 -45 11 -21 1 -73
6 -117 9 -57 5 -77 4 -72 -4z m66 -138 c0 -5 23 -7 51 -6 46 2 50 0 47 -20 -3
-19 -8 -22 -43 -18 -22 2 -49 4 -59 5 -23 1 -34 46 -11 46 8 0 15 -3 15 -7z"/>
<path d="M2483 626 c21 -21 22 -56 2 -56 -8 0 -15 -3 -15 -7 0 -5 20 -7 45 -6
29 0 51 -5 60 -14 8 -8 15 -10 15 -5 0 10 117 7 148 -3 6 -3 12 0 12 5 0 6
-22 10 -49 10 -46 0 -49 2 -44 23 3 18 2 19 -6 6 -7 -11 -23 -15 -53 -13 -24
2 -44 4 -45 5 -2 1 -9 2 -15 3 -7 0 -14 11 -16 24 -3 21 -1 23 30 18 40 -7 68
-9 88 -7 38 4 -24 22 -97 28 -74 6 -77 5 -60 -11z"/>
<path d="M2473 509 c9 -5 17 -21 17 -34 0 -20 -5 -25 -27 -25 -47 0 -17 -11
43 -16 32 -2 61 -10 66 -16 6 -10 8 -10 8 1 0 7 6 11 15 7 9 -3 15 1 15 11 0
12 -7 14 -34 10 -41 -7 -72 12 -63 37 5 13 15 16 39 11 18 -3 44 -7 58 -9 14
-2 34 2 43 9 16 11 12 13 -25 13 -24 0 -72 3 -108 6 -47 4 -60 3 -47 -5z"/>
<path d="M2638 450 c-10 -33 5 -47 34 -31 23 11 23 11 1 7 -18 -3 -23 1 -25
23 l-3 26 -7 -25z"/>
<path d="M563 386 c-6 -12 -15 -16 -23 -11 -8 5 -26 9 -41 9 -23 1 -26 -2 -17
-17 6 -12 17 -17 30 -14 28 8 48 -2 48 -24 0 -21 -15 -25 -25 -9 -5 8 -11 8
-19 1 -9 -8 -19 -4 -36 11 -18 17 -22 18 -17 6 4 -12 0 -19 -13 -23 -16 -5
-17 -9 -7 -20 9 -9 14 -10 19 -1 5 8 12 8 25 0 10 -6 29 -10 43 -9 14 1 39 -4
57 -12 29 -12 33 -11 33 2 0 24 20 17 21 -7 1 -19 2 -19 6 -5 3 13 10 16 21
12 10 -4 30 -8 46 -11 15 -2 35 -9 42 -15 12 -9 13 -9 8 4 -7 19 -27 28 -79
34 -58 7 -68 15 -51 38 14 20 37 21 142 10 41 -5 64 -4 68 4 5 7 -10 11 -48
12 -53 1 -67 3 -83 9 -8 3 -42 6 -100 9 -21 1 -33 7 -35 19 -3 16 -5 16 -15
-2z m57 -63 c0 -7 -11 -13 -25 -13 -20 0 -25 5 -25 24 0 22 2 23 25 13 14 -7
25 -18 25 -24z"/>
<path d="M2457 388 c-7 -5 -3 -8 12 -8 15 0 21 -5 18 -13 -7 -18 15 -44 47
-57 37 -14 109 -13 101 1 -4 6 -19 10 -33 9 -15 -1 -29 -1 -32 0 -3 1 -16 4
-30 6 -34 6 -46 20 -32 37 12 14 39 16 57 5 16 -10 69 -13 83 -5 24 15 12 25
-30 25 -24 -1 -67 1 -96 3 -30 2 -59 1 -65 -3z"/>
<path d="M2710 363 c0 -5 19 -10 42 -12 23 -1 40 0 37 3 -10 10 -79 17 -79 9z"/>
<path d="M400 266 c0 -9 -7 -16 -15 -16 -8 0 -15 -4 -15 -9 0 -13 28 -22 32
-10 4 12 58 -8 70 -26 5 -6 8 -2 8 9 0 13 4 16 18 11 9 -4 27 -10 40 -13 39
-8 18 -27 -29 -26 -82 1 -124 7 -146 21 -19 11 -22 11 -17 -1 4 -11 0 -13 -15
-9 -33 8 -25 -14 9 -25 20 -8 32 -8 36 0 4 6 9 5 15 -3 6 -10 31 -14 84 -14
68 0 75 -2 76 -20 0 -17 2 -16 10 5 7 16 13 20 17 13 4 -6 31 -13 60 -15 28
-2 52 -5 52 -8 0 -3 21 -6 48 -7 l47 -2 -30 14 c-16 7 -59 16 -95 20 -92 9
-99 12 -93 38 9 36 30 47 61 31 31 -16 90 -18 112 -4 12 8 8 10 -15 11 -16 1
-43 0 -58 -1 -15 -1 -34 3 -42 10 -7 6 -24 10 -37 9 -12 -1 -42 -1 -65 -1 -34
2 -43 6 -43 20 -1 16 -2 16 -14 -1 -14 -18 -16 -18 -40 -2 -24 16 -26 16 -26
1z"/>
<path d="M240 151 c0 -5 -9 -13 -21 -16 -30 -10 -15 -18 33 -19 24 -1 49 -5
56 -9 6 -5 12 -6 12 -3 0 3 11 1 25 -4 17 -6 25 -6 25 1 0 7 16 9 48 5 26 -4
88 -11 137 -15 50 -5 118 -13 151 -16 42 -5 63 -4 68 4 5 7 -1 10 -16 9 -20
-1 -65 3 -179 16 -14 2 -31 6 -38 10 -6 4 -18 2 -26 -4 -11 -10 -15 -10 -15
-1 0 7 -5 9 -10 6 -6 -4 -24 0 -40 9 -16 8 -32 11 -35 6 -6 -10 -99 8 -103 21
-3 6 -8 6 -17 -1 -10 -8 -19 -8 -34 0 -13 6 -21 7 -21 1z"/>
<path d="M180 103 c0 -6 4 -14 10 -18 5 -3 7 -12 3 -20 -4 -11 3 -15 28 -16
19 -1 60 -3 91 -5 47 -3 56 -1 51 11 -3 8 -15 15 -27 16 -11 0 -30 2 -41 4
-11 2 -37 6 -59 8 -21 2 -42 11 -47 18 -6 9 -9 10 -9 2z"/>
<path d="M376 23 c-8 -21 -8 -23 9 -23 8 0 15 7 15 15 0 8 7 15 15 15 8 0 15
-3 15 -7 0 -10 71 -10 88 0 6 5 17 5 23 1 7 -4 26 -8 43 -10 l31 -2 -30 13
c-43 19 -202 18 -209 -2z"/>
<path d="M180 22 c0 -15 26 -22 76 -22 34 0 44 4 44 16 0 13 -3 14 -14 5 -14
-12 -73 -10 -94 3 -7 4 -12 3 -12 -2z"/>
<path d="M2437 22 c-15 -2 -25 -8 -22 -13 8 -12 65 -12 65 0 0 14 -11 17 -43
13z"/>
</g>
</svg>
